<?xml version="1.0" standalone="no"?><!DOCTYPE svg PUBLIC "-//W3C//DTD SVG 1.1//EN" "http://www.w3.org/Graphics/SVG/1.1/DTD/svg11.dtd"><svg t="1709283478253" class="icon" viewBox="0 0 1820 1024" version="1.1" xmlns="http://www.w3.org/2000/svg" p-id="8973" xmlns:xlink="http://www.w3.org/1999/xlink" width="113.75" height="64"><path d="M530.488889 457.709037V198.874074c0-32.606815 26.614519-59.031704 59.410963-59.031704h260.437333c32.786963 0 59.410963 26.43437 59.410963 59.031704V516.740741H589.899852c-32.796444 0-59.410963-26.43437-59.410963-59.031704z m699.107555 435.939556h-260.437333c-32.786963 0-59.410963-26.43437-59.410963-59.031704V516.740741h319.848296c32.786963 0 59.410963 26.43437 59.410963 59.031703v258.834963c0 32.606815-26.614519 59.041185-59.410963 59.041186z" fill="#0D69C1" p-id="8974"></path><path d="M540.008296 789.94963V592.118519h38.912c-0.426667 3.109926-0.986074 6.172444-0.986074 9.424592V752.260741c0 41.652148 33.972148 75.377778 75.851852 75.377778H795.97037v37.688888H615.860148c-41.889185 0-75.851852-33.735111-75.851852-75.377777z m673.573926-348.586667c0.379259-3.204741 0.938667-6.409481 0.938667-9.756444V275.664593c0-43.064889-32.692148-77.975704-73.02637-77.975704h-136.96v-38.959408h173.473185c40.324741 0 73.02637 34.910815 73.02637 77.975704V441.362963h-37.451852z" fill="#555561" p-id="8975"></path></svg>